<svg height="41" viewBox="0 0 47 41" width="47" xmlns="http://www.w3.org/2000/svg">
<g fill="#77cfff" fill-rule="evenodd" transform="translate(-8 -12)">
<path d="m48.2066941 48.020592h-4.4197224v-2.2172274h4.4197224zm-28.3746181 0h-4.4197225v-2.2172274h4.4197225zm22.1428095-31.041184 1.3259167 6.6516823h-22.9847666l1.3281266-6.6516823zm8.1788476 10.719905h4.2405725v-4.0682227h-6.457583l-1.9840869-9.3034863c-.2055171-1.0376625-1.1137701-1.7826509-2.165664-1.7826509h-23.9548957c-1.0541039 0-1.960147.7449884-2.1678739 1.7826509l-1.6916788 9.3034863h-7.18975348v4.4344548h5.21748228l-4.77551004 5.3213459c-.28728196.3835803-.44197224.8514153-.44197224 1.3303364v8.8689098c0 1.2239095.99001783 2.2172274 2.20986118 2.2172274v4.4344549c0 1.2239095.9900179 2.2172274 2.2098613 2.2172274h8.8394449c1.2198434 0 2.2098612-.9933179 2.2098612-2.2172274v-4.4344549h4.4329816c-.9789685-1.0221419-2.4396868-2.6362834-3.7501345-4.4344549h-11.7321532v-4.1750392h9.8705388c-.5922428-1.1862167-1.1128588-3.8690619-1.0310939-4.250425h-6.9610629l3.646271-4.8779004h26.164757l3.646271 4.8779004h-7.6400504c.0817649.3813631-.0501996 3.0642083-.6424424 4.250425h10.1608748v4.1750392h-11.7343631c-1.3104477 1.7981715-2.7689561 3.412313-3.7501345 4.4344549h4.4351915v4.4344549c0 1.2239095.9900178 2.2172274 2.2098612 2.2172274h8.8394449c1.2198434 0 2.2098613-.9933179 2.2098613-2.2172274v-4.4344549c1.2198434 0 2.2098612-.9933179 2.2098612-2.2172274v-8.8689098c0-.4789211-.1569001-.9467561-.4419722-1.3303364z"></path><path d="m35.4752417 31.5818461c-1.8297651 0-3.3147919 1.4899769-3.3147919 3.3258412 0-1.8358643-1.4850267-3.3258412-3.3147918-3.3258412s-3.3147919 1.4899769-3.3147919 3.3258412c0 3.3258411 6.6295837 9.9775234 6.6295837 9.9775234s6.6295837-6.6516823 6.6295837-9.9775234c0-1.8358643-1.4850267-3.3258412-3.3147918-3.3258412"></path></g></svg>