<svg height="53" viewBox="0 0 53 53" width="53" xmlns="http://www.w3.org/2000/svg">
<g fill="#77cfff" fill-rule="evenodd" transform="translate(-5 -5)"><path d="m18.25 18.25h-6.4417083c1.5480416-2.669875 3.7718333-4.8936667 6.4417083-6.4417083zm0 13.25h-8.25254167c-.364375-1.4155417-.58079166-2.8907083-.58079166-4.4166667 0-1.5259583.21641666-3.001125.58079166-4.4166666h8.25254167zm0 10.858375c-2.669875-1.5480417-4.8936667-3.7718333-6.4417083-6.4417083h6.4417083zm4.4166667-32.36091667c1.4155416-.364375 2.8907083-.58079166 4.4166666-.58079166 1.5259584 0 3.001125.21641666 4.4166667.58079166v8.25254167h-8.8333333zm13.25 1.81083337c2.669875 1.5480416 4.8936666 3.7718333 6.4417083 6.4417083h-6.4417083zm-13.25 10.858375h8.8333333v2.2083333h4.4166667v-2.2083333h8.2525416c.1855.7199166.33125 1.4575.430625 2.2083333h4.4542084c-1.1107917-11.14325-10.5381667-19.875-21.9707084-19.875-12.17675 0-22.0833333 9.9065833-22.0833333 22.0833333 0 11.4325417 8.73175 20.8599167 19.875 21.9707084v-4.4542084c-.7508333-.099375-1.4884167-.245125-2.2083333-.430625v-8.2525416h2.2083333v-4.4166667h-2.2083333z"></path><path d="m42.5416667 53.5833333c-6.088375 0-11.0416667-4.9532916-11.0416667-11.0416666s4.9532917-11.0416667 11.0416667-11.0416667 11.0416666 4.9532917 11.0416666 11.0416667-4.9532916 11.0416666-11.0416666 11.0416666m0-26.5c-8.5241667 0-15.4583334 6.9341667-15.4583334 15.4583334 0 8.5241666 6.9341667 15.4583333 15.4583334 15.4583333 8.5241666 0 15.4583333-6.9341667 15.4583333-15.4583333 0-8.5241667-6.9341667-15.4583334-15.4583333-15.4583334"></path><path d="m44.75 33.7083333h-4.4166667v11.0416667h8.8333334v-4.4166667h-4.4166667z"></path></g></svg>