<svg height="46" viewBox="0 0 41 46" width="41" xmlns="http://www.w3.org/2000/svg"><g fill="#77cfff" transform=""><path d="m19.2766411 24.1885965c-6.6432124 0-12.04790069-5.4255022-12.04790069-12.0942983 0-6.66879601 5.40468829-12.0942982 12.04790069-12.0942982s12.0479007 5.42550219 12.0479007 12.0942982h-4.8191603c0-4.00079381-3.2432949-7.2565789-7.2287404-7.2565789-3.9854456 0-7.2287404 3.25578509-7.2287404 7.2565789 0 4.0007939 3.2432948 7.256579 7.2287404 7.256579z"></path><path d="m28.9149616 24.1885965h-7.2287404v-9.6754386h9.6383206v4.4216754c2.8047513-.9965701 4.8191602-3.6863421 4.8191602-6.8405351v-4.83771925h4.8191603v4.83771925c0 6.6687961-5.4046882 12.0942983-12.0479007 12.0942983z"></path><path d="m38.5532822 45.9583333h-38.5532822v-4.8377193c0-8.5458311 7.92751865-14.5131579 19.2766411-14.5131579 11.3491224 0 19.2766411 5.9673268 19.2766411 14.5131579zm-33.73412193-4.8377193h28.91496163c0-5.6964144-5.9444342-9.6754386-14.4574808-9.6754386s-14.45748083 3.9790242-14.45748083 9.6754386z"></path></g></svg>